<?xml version="1.0" standalone="no"?>
<!DOCTYPE svg PUBLIC "-//W3C//DTD SVG 20010904//EN"
 "http://www.w3.org/TR/2001/REC-SVG-20010904/DTD/svg10.dtd">
<svg version="1.0" xmlns="http://www.w3.org/2000/svg"
 width="200.000000pt" height="200.000000pt" viewBox="0 0 200.000000 200.000000"
 preserveAspectRatio="xMidYMid meet">

<g transform="translate(0.000000,200.000000) scale(0.100000,-0.100000)"
fill="#1e3a5f" stroke="none">
<path d="M427 1936 c-67 -19 -150 -79 -191 -139 -99 -145 -79 -336 50 -457 77
-73 129 -93 239 -94 80 -1 97 2 150 28 73 36 135 99 172 174 24 50 28 68 28
147 0 76 -4 99 -27 147 -34 73 -104 143 -175 175 -68 31 -174 40 -246 19z
m271 -218 c7 -7 12 -21 12 -32 0 -24 -181 -227 -212 -239 -16 -6 -34 6 -88 59
-75 72 -85 92 -63 123 22 32 52 25 95 -21 l39 -42 82 82 c81 81 109 96 135 70z"/>
<path d="M980 1603 c0 -66 -26 -169 -55 -222 -14 -24 -25 -45 -25 -47 0 -2 84
-5 188 -6 l187 -3 3 -39 c2 -24 -2 -42 -10 -47 -7 -5 -115 -9 -240 -9 l-226 0
-69 -34 c-86 -43 -168 -60 -251 -52 l-63 7 3 -367 3 -366 33 -29 32 -29 289 0
288 0 227 322 226 322 0 286 c0 312 0 314 -60 345 -23 12 -74 15 -255 15
l-225 0 0 -47z m298 -620 c3 -37 0 -43 -20 -48 -13 -3 -153 -4 -313 -3 l-290
3 -3 48 -3 47 313 -2 313 -3 3 -42z m-200 -300 l-3 -48 -210 0 -210 0 -3 48
-3 47 216 0 216 0 -3 -47z"/>
<path d="M1597 969 l-36 -52 22 -17 c12 -9 57 -41 100 -71 64 -44 80 -51 87
-39 5 8 20 30 34 49 14 19 26 41 26 47 0 14 -166 134 -185 134 -7 0 -28 -23
-48 -51z"/>
<path d="M1354 622 c-87 -124 -162 -231 -166 -237 -7 -11 170 -146 189 -144 4
0 81 104 171 232 l162 232 -26 21 c-14 12 -58 44 -98 71 l-73 51 -159 -226z"/>
<path d="M1107 268 c-23 -31 -25 -38 -18 -117 8 -107 13 -111 114 -81 62 19
82 29 103 57 14 19 22 38 18 42 -11 9 -164 115 -181 125 -7 4 -22 -7 -36 -26z"/>
</g>
</svg>
