<?xml version="1.0" standalone="no"?>
<!DOCTYPE svg PUBLIC "-//W3C//DTD SVG 20010904//EN"
 "http://www.w3.org/TR/2001/REC-SVG-20010904/DTD/svg10.dtd">
<svg version="1.0" xmlns="http://www.w3.org/2000/svg"
 width="452.000000pt" height="552.000000pt" viewBox="0 0 452.000000 552.000000"
 preserveAspectRatio="xMidYMid meet">

<g transform="translate(0.000000,552.000000) scale(0.100000,-0.100000)"
fill="#1e3a5f" stroke="none">
<path d="M2125 5513 c-83 -19 -200 -62 -275 -99 -68 -34 -101 -59 -142 -103
-53 -59 -88 -131 -88 -181 0 -19 -14 -36 -55 -68 -31 -23 -69 -63 -85 -89 -30
-47 -66 -140 -57 -149 2 -2 16 0 31 6 27 10 27 10 21 -28 -4 -20 -12 -53 -18
-72 -20 -60 -14 -251 12 -387 l24 -122 -27 -31 c-37 -44 -34 -83 19 -235 52
-150 62 -164 105 -148 l30 11 16 -56 c52 -181 88 -241 228 -375 159 -153 262
-201 426 -199 104 1 153 16 237 73 105 73 266 247 314 339 12 25 35 83 49 130
28 86 30 89 77 75 17 -6 25 -1 37 23 8 16 20 47 25 68 5 22 21 73 36 114 36
99 38 150 6 184 l-25 26 29 113 c15 61 33 124 41 138 7 14 18 56 25 93 20 117
-16 272 -102 434 -45 85 -46 92 -19 92 11 0 20 6 20 13 0 20 -147 154 -234
211 -160 107 -282 139 -518 139 l-157 0 14 28 c22 42 22 42 -20 32z m651 -675
c58 -22 109 -48 113 -57 10 -20 28 -118 36 -194 8 -73 -5 -327 -16 -327 -5 0
-9 16 -9 35 0 49 -35 202 -64 279 -33 88 -86 167 -165 250 -66 69 -66 69 -33
63 19 -4 81 -26 138 -49z"/>
<path d="M1800 3333 c0 -5 -4 -35 -9 -68 -5 -33 -12 -79 -15 -101 l-6 -42 73
-54 c80 -61 388 -357 387 -374 0 -5 -13 -23 -28 -40 -34 -35 -165 -192 -212
-254 -19 -25 -38 -46 -42 -48 -5 -2 -8 -9 -8 -15 0 -6 26 15 59 47 l58 58 22
-35 c11 -19 21 -37 21 -41 0 -3 14 -29 31 -56 37 -60 39 21 -21 -650 -21 -239
-46 -525 -55 -635 -19 -233 -23 -265 -33 -265 -11 0 -525 1042 -556 1125 -61
169 -78 311 -56 464 11 79 64 255 115 383 11 26 16 50 13 54 -9 8 -110 -18
-234 -60 -54 -18 -117 -38 -139 -44 -215 -59 -435 -144 -486 -188 -8 -8 -57
-36 -109 -63 -51 -27 -111 -66 -133 -87 -51 -49 -97 -149 -141 -301 -103 -359
-159 -719 -216 -1398 -16 -196 -29 -281 -56 -380 -13 -50 -24 -101 -24 -115 0
-34 38 -94 79 -125 l35 -25 350 0 351 0 32 36 31 37 32 -37 32 -36 1302 0
1301 0 37 30 c20 17 40 39 43 50 10 30 18 24 42 -30 l22 -50 366 0 366 0 43
45 c62 63 66 108 22 233 -20 56 -33 160 -51 427 -26 366 -48 563 -91 810 -86
491 -178 782 -268 850 -38 28 -352 185 -421 210 -27 10 -54 22 -60 25 -12 9
-199 78 -305 114 -161 54 -320 89 -320 71 0 -3 11 -28 26 -56 14 -28 38 -87
53 -132 52 -148 64 -214 65 -347 1 -220 -36 -329 -279 -817 -138 -275 -341
-671 -351 -682 -10 -11 -14 17 -28 189 -39 474 -57 677 -71 825 -46 484 -46
464 -1 553 18 37 43 78 54 92 l21 25 43 -42 c88 -86 57 -30 -51 92 -75 84
-146 169 -159 186 -12 17 2 34 145 173 170 165 223 212 278 246 24 15 34 28
31 39 -2 9 -7 55 -11 104 -7 94 -14 102 -55 64 -161 -148 -272 -195 -437 -185
-137 9 -265 69 -386 183 -48 45 -57 51 -57 38z"/>
<path d="M1688 2977 c-10 -17 -30 -56 -45 -84 l-27 -53 19 -57 c30 -90 40
-113 168 -383 40 -84 32 -44 -29 149 -30 97 -60 192 -66 211 -14 44 -13 186 1
223 15 37 0 34 -21 -6z"/>
<path d="M2804 2888 c1 -129 1 -130 -111 -518 -8 -28 48 91 87 185 4 11 33 80
64 154 l56 135 -30 48 c-17 27 -30 50 -30 53 0 2 -8 18 -19 35 l-18 31 1 -123z"/>
<path d="M1830 2326 c0 -8 4 -17 9 -20 5 -4 7 3 4 14 -6 23 -13 26 -13 6z"/>
</g>
</svg>
