<?xml version="1.0" standalone="no"?>
<!DOCTYPE svg PUBLIC "-//W3C//DTD SVG 20010904//EN"
 "http://www.w3.org/TR/2001/REC-SVG-20010904/DTD/svg10.dtd">
<svg version="1.0" xmlns="http://www.w3.org/2000/svg"
 width="920.000000pt" height="512.000000pt" viewBox="0 0 920.000000 512.000000"
 preserveAspectRatio="xMidYMid meet">

<g transform="translate(0.000000,512.000000) scale(0.100000,-0.100000)"
fill="#000000" stroke="none">
<path d="M4161 5102 c-70 -35 -75 -52 -81 -258 l-5 -186 -70 -27 c-38 -16 -86
-35 -106 -44 l-36 -16 -114 115 c-63 64 -126 122 -141 130 -35 18 -101 18
-136 0 -15 -8 -156 -144 -314 -303 -245 -246 -287 -293 -293 -325 -12 -64 8
-96 138 -226 l124 -124 -46 -108 -45 -108 -181 -4 c-170 -3 -182 -4 -213 -26
-63 -45 -62 -39 -62 -492 0 -457 0 -460 65 -500 29 -18 49 -20 211 -20 l179 0
33 -83 c18 -45 39 -94 45 -110 11 -26 8 -31 -105 -145 -129 -129 -153 -169
-143 -236 7 -37 32 -66 294 -330 158 -160 300 -294 318 -302 59 -25 111 -16
159 28 l21 19 -21 42 c-20 41 -21 54 -21 507 0 518 0 520 67 658 l41 84 -21
61 c-32 93 -41 135 -51 235 -30 284 78 575 286 773 126 120 254 193 419 241
68 20 102 23 244 23 142 0 176 -3 244 -23 391 -113 665 -435 705 -829 15 -143
-1 -274 -51 -420 l-21 -61 41 -84 c67 -138 67 -140 67 -658 0 -453 -1 -466
-21 -507 l-21 -42 21 -19 c48 -44 100 -53 159 -28 18 8 159 141 314 297 236
239 283 291 294 326 20 70 -2 110 -136 243 -63 63 -115 121 -115 128 0 7 11
34 24 60 13 26 31 71 40 100 l18 52 180 0 c164 0 184 2 213 20 65 40 65 43 65
500 0 453 1 447 -62 492 -31 22 -43 23 -213 26 l-181 4 -45 108 -46 108 124
124 c130 130 150 162 138 226 -6 32 -48 79 -293 325 -158 159 -299 295 -314
303 -35 18 -101 18 -136 0 -15 -8 -78 -66 -141 -130 l-114 -115 -36 16 c-20 9
-67 28 -106 44 l-70 27 -5 186 c-5 166 -7 187 -26 213 -46 63 -48 63 -494 63
-366 0 -408 -2 -439 -18z"/>
<path d="M4511 3829 c-126 -25 -258 -128 -312 -243 -105 -227 -15 -483 210
-594 73 -36 77 -37 191 -37 114 0 118 1 191 37 181 90 276 268 248 466 -35
250 -278 420 -528 371z"/>
<path d="M4158 2741 c-48 -16 -107 -40 -131 -54 -59 -35 -123 -107 -155 -175
l-27 -57 -3 -451 -3 -452 141 -212 140 -213 0 -548 c0 -484 2 -549 16 -563 14
-14 70 -16 464 -16 394 0 450 2 464 16 14 14 16 79 16 563 l0 547 140 213 141
214 -3 451 -3 451 -26 56 c-32 68 -88 132 -148 170 -64 41 -228 94 -245 80 -8
-7 -48 -69 -89 -139 -91 -154 -206 -322 -230 -336 -12 -8 -22 -8 -35 0 -23 14
-137 181 -224 329 -71 119 -96 155 -107 155 -3 -1 -45 -14 -93 -29z"/>
</g>
</svg>
