<?xml version="1.0" standalone="no"?>
<!DOCTYPE svg PUBLIC "-//W3C//DTD SVG 20010904//EN"
 "http://www.w3.org/TR/2001/REC-SVG-20010904/DTD/svg10.dtd">
<svg version="1.0" xmlns="http://www.w3.org/2000/svg"
 width="512.000000pt" height="512.000000pt" viewBox="0 0 512.000000 512.000000"
 preserveAspectRatio="xMidYMid meet">

<g transform="translate(0.000000,512.000000) scale(0.100000,-0.100000)"
fill="#000000" stroke="none">
<path d="M2473 5083 c-22 -16 -580 -435 -1241 -931 -969 -730 -1204 -911
-1217 -939 -29 -60 -6 -132 52 -170 23 -15 57 -18 230 -21 l203 -4 0 -1456 c0
-1427 0 -1458 20 -1489 43 -72 4 -68 695 -68 691 0 652 -4 695 68 19 31 20 56
20 770 l0 737 630 0 630 0 0 -737 c0 -714 1 -739 20 -770 43 -72 4 -68 695
-68 691 0 652 -4 695 68 20 31 20 62 20 1489 l0 1456 203 4 c173 3 207 6 230
21 58 38 81 110 52 170 -13 28 -248 209 -1217 939 -661 496 -1219 915 -1241
931 -30 20 -52 27 -87 27 -35 0 -57 -7 -87 -27z"/>
</g>
</svg>
