<?xml version="1.0" standalone="no"?>
<!DOCTYPE svg PUBLIC "-//W3C//DTD SVG 20010904//EN" "http://www.w3.org/TR/2001/REC-SVG-20010904/DTD/svg10.dtd">
<svg xmlns="http://www.w3.org/2000/svg" width="512" height="512" viewBox="40 45 942 945">
  <g>
    <!-- Capa Base (Azul oscuro) -->
    <path d="M 950.50 972.06 C947.92,973.09 75.33,973.08 71.94,972.05 C63.32,969.44 57.86,963.70 55.95,955.24 C53.83,945.91 58.16,893.02 62.93,869.83 C82.46,775.01 131.13,694.19 206.26,631.81 C259.26,587.81 326.37,556.97 395.00,545.06 C424.35,539.97 429.67,539.68 502.00,539.24 C546.86,538.97 576.01,539.22 586.46,539.95 C640.92,543.79 690.99,557.50 740.10,582.01 C780.63,602.25 812.86,625.70 846.51,659.44 C877.73,690.75 901.23,722.50 920.57,759.50 C941.53,799.61 955.91,844.37 962.96,891.50 C965.32,907.24 967.40,940.42 966.40,946.47 C965.21,953.70 954.33,964.89 946.91,966.52 C942.86,967.41 943.27,968.46 948.25,969.97 C951.86,971.07 952.20,971.38 950.50,972.06 ZM 99.64 929.23 C99.90,929.65 285.06,930.00 511.09,930.00 C871.54,930.00 922.13,929.82 922.63,928.53 C923.38,926.56 921.23,904.15 918.98,890.50 C907.62,821.72 877.69,758.70 831.57,706.50 C821.18,694.73 801.55,675.60 792.08,668.00 C789.68,666.08 784.74,662.10 781.11,659.17 C771.13,651.12 748.09,636.04 733.50,628.00 C709.60,614.83 673.36,600.24 650.50,594.60 C609.32,584.44 594.64,582.99 525.67,582.29 C472.47,581.74 448.46,582.41 425.00,585.07 C351.61,593.41 286.65,621.55 227.00,670.84 C217.37,678.80 189.69,707.14 181.43,717.50 C137.44,772.71 110.88,833.37 102.00,898.92 C100.45,910.32 99.06,928.28 99.64,929.23 ZM 533.01 494.54 C503.09,497.72 473.77,494.45 443.80,484.58 C402.38,470.94 368.29,447.02 338.96,411.00 C319.47,387.07 304.57,354.72 297.97,322.00 C293.75,301.06 292.74,287.02 294.02,266.71 C296.08,233.82 302.57,209.81 317.44,180.00 C327.59,159.64 339.50,143.40 357.45,125.44 C390.68,92.19 427.20,73.17 474.50,64.46 C488.38,61.91 525.24,61.34 540.50,63.44 C573.77,68.03 603.03,78.91 630.10,96.77 C653.09,111.95 676.99,135.59 691.33,157.37 C727.74,212.66 737.84,278.42 719.43,340.29 C702.80,396.15 663.67,443.49 611.86,470.43 C584.74,484.52 562.06,491.46 533.01,494.54 ZM 488.00 450.50 C502.95,452.69 531.45,451.78 546.10,448.64 C604.35,436.19 654.60,392.66 674.40,337.50 C682.33,315.40 686.21,287.05 684.12,266.35 C682.54,250.70 679.55,235.56 675.85,224.50 C672.69,215.05 662.68,193.58 658.19,186.60 C648.98,172.31 633.64,154.92 621.41,144.92 C587.60,117.30 547.71,103.70 505.08,105.28 C472.84,106.47 445.08,115.14 418.02,132.49 C381.30,156.03 353.90,193.76 343.21,235.53 C338.59,253.59 337.64,263.19 338.29,285.23 C339.05,310.89 341.92,323.94 352.01,347.57 C361.71,370.28 378.34,392.45 398.73,409.84 C424.49,431.80 454.92,445.66 488.00,450.50 Z" fill="rgb(18,74,160)"/>
    <!-- Detalles (Azul medio) -->
    <path d="M 264.60 929.85 C288.74,929.74 310.09,929.57 323.93,929.34 L 363.18 928.67 L 372.34 920.50 C397.87,897.74 426.63,866.13 446.94,838.50 C450.99,833.00 455.48,826.92 456.93,825.00 C470.34,807.18 494.47,766.97 506.73,742.00 C529.23,696.21 544.02,654.89 553.97,610.00 C555.13,604.78 556.74,597.92 557.54,594.77 C558.34,591.61 559.00,587.64 559.00,585.93 L 559.00 582.83 L 495.75 583.29 C465.04,583.51 442.28,583.91 431.19,584.42 C452.88,582.30 477.12,581.79 525.67,582.29 C594.64,582.99 609.32,584.44 650.50,594.60 C673.36,600.24 709.60,614.83 733.50,628.00 C748.09,636.04 771.13,651.12 781.11,659.17 C784.74,662.10 789.68,666.08 792.08,668.00 C801.55,675.60 821.18,694.73 831.57,706.50 C877.69,758.70 907.62,821.72 918.98,890.50 C921.23,904.15 923.38,926.56 922.63,928.53 C922.13,929.82 871.54,930.00 511.09,930.00 C418.86,930.00 333.43,929.94 264.60,929.85 ZM 564.19 443.70 L 568.00 442.07 L 567.99 436.79 C567.96,422.51 563.46,386.02 558.39,359.00 C551.70,323.34 539.31,280.43 527.08,250.50 C508.04,203.93 493.22,175.81 465.39,133.48 C457.01,120.74 454.60,117.01 451.76,116.65 C450.59,116.50 449.35,116.92 447.59,117.51 L 447.38 117.58 C440.76,119.82 428.00,126.25 419.23,131.72 C445.91,114.89 473.33,106.45 505.08,105.28 C547.71,103.70 587.60,117.30 621.41,144.92 C633.64,154.92 648.98,172.31 658.19,186.60 C662.68,193.58 672.69,215.05 675.85,224.50 C679.55,235.56 682.54,250.70 684.12,266.35 C686.21,287.05 682.33,315.40 674.40,337.50 C656.68,386.86 614.59,426.90 564.19,443.70 ZM 374.72 594.22 C371.08,595.16 367.39,596.19 363.50,597.31 C347.15,602.06 331.37,607.84 316.04,614.72 C335.00,606.18 354.54,599.35 374.72,594.22 ZM 532.35 450.62 C537.48,450.11 542.26,449.42 546.29,448.57 C547.61,448.30 548.96,448.00 550.29,447.69 C548.89,448.03 547.50,448.34 546.10,448.64 C542.29,449.46 537.54,450.12 532.35,450.62 ZM 410.37 587.02 C404.32,587.98 398.94,588.91 393.91,589.89 C399.35,588.82 404.83,587.86 410.37,587.02 ZM 488.00 450.50 C454.92,445.66 424.49,431.80 398.73,409.84 C424.49,431.80 454.96,445.68 488.00,450.50 C488.94,450.63 489.93,450.76 490.95,450.87 C489.92,450.76 488.93,450.64 488.00,450.50 Z" fill="rgb(29,118,205)"/>
    <!-- Sombras/Reflejos (Azul claro) -->
    <path d="M 99.64 929.23 C99.06,928.28 100.45,910.32 102.00,898.92 C110.88,833.37 137.44,772.71 181.43,717.50 C189.69,707.14 217.37,678.80 227.00,670.84 C255.37,647.40 284.93,628.74 316.04,614.72 C331.37,607.84 347.15,602.06 363.50,597.31 C367.39,596.19 371.08,595.17 374.72,594.22 L 374.72 594.22 C381.05,592.61 387.45,591.17 393.91,589.89 C398.94,588.91 404.32,587.98 410.37,587.02 L 410.37 587.02 C415.21,586.28 420.09,585.63 425.00,585.07 C427.05,584.84 429.11,584.62 431.19,584.42 C442.28,583.91 465.04,583.51 495.75,583.29 L 559.00 582.83 L 559.00 585.93 C559.00,587.64 558.34,591.61 557.54,594.77 C556.74,597.92 555.13,604.78 553.97,610.00 C544.02,654.89 529.23,696.21 506.73,742.00 C494.47,766.97 470.34,807.18 456.93,825.00 C455.48,826.92 450.99,833.00 446.94,838.50 C426.63,866.13 397.87,897.74 372.34,920.50 L 363.18 928.67 L 323.93 929.34 C310.09,929.57 288.74,929.74 264.60,929.85 C164.74,929.70 99.80,929.48 99.64,929.23 ZM 564.19 443.70 C559.62,445.23 554.98,446.56 550.29,447.69 C548.96,448.00 547.61,448.30 546.29,448.57 C542.26,449.42 537.48,450.11 532.35,450.62 C518.79,451.92 502.15,452.10 490.95,450.87 L 490.94 450.87 C489.92,450.76 488.94,450.63 488.00,450.50 C472.10,448.18 456.79,443.76 442.32,437.35 C426.72,430.45 412.09,421.23 398.73,409.84 C378.34,392.45 361.71,370.28 352.01,347.57 C341.92,323.94 339.05,310.89 338.29,285.23 C337.64,263.19 338.59,253.59 343.21,235.53 C353.90,193.76 381.30,156.03 418.02,132.49 C418.42,132.23 418.83,131.97 419.23,131.72 L 419.23 131.71 C428.00,126.25 440.76,119.82 447.38,117.58 L 447.38 117.58 C449.35,116.92 450.59,116.50 451.76,116.65 C454.60,117.01 457.01,120.74 465.39,133.48 C493.22,175.81 508.04,203.93 527.08,250.50 C539.31,280.43 551.70,323.34 558.39,359.00 C563.46,386.02 567.96,422.51 567.99,436.79 L 568.00 442.07 Z" fill="rgb(33,136,226)"/>
  </g>
</svg>
