<?xml version="1.0" standalone="no"?>
<!DOCTYPE svg PUBLIC "-//W3C//DTD SVG 20010904//EN"
 "http://www.w3.org/TR/2001/REC-SVG-20010904/DTD/svg10.dtd">
<svg xmlns="http://www.w3.org/2000/svg" viewBox="65 26 126 215" width="512pt" height="512pt">
  <g transform="translate(0,256) scale(0.1,-0.1)" fill="#000000">
    <path d="M1200 2268 c-55 -38 -74 -71 -78 -142 l-4 -64 -60 -20 c-183 -63 -326 -221 -389 -432 -21 -70 -23 -98 -26 -415 l-4 -340 -74 -75 c-101 -103 -111 -129 -79 -191 31 -60 15 -59 794 -59 779 0 763 -1 794 59 32 62 22 88 -79 191 l-74 75 -4 340 c-3 317 -5 345 -26 415 -63 211 -206 369 -389 432 l-60 20 -4 64 c-6 100 -68 164 -158 164 -32 0 -57 -7 -80 -22z"/>
    <path d="M1070 405 c0 -34 26 -94 53 -123 64 -69 176 -87 257 -42 54 31 100 93 107 148 l6 42 -212 0 -211 0 0 -25z"/>
  </g>
</svg>