<?xml version="1.0" standalone="no"?>
<!DOCTYPE svg PUBLIC "-//W3C//DTD SVG 20010904//EN"
 "http://www.w3.org/TR/2001/REC-SVG-20010904/DTD/svg10.dtd">
<svg xmlns="http://www.w3.org/2000/svg" viewBox="90 115 460 410" width="640pt" height="640pt">
  <g transform="translate(0,640) scale(0.1,-0.1)" fill="#000000">
    <path d="M2662 5065 c-141 -39 -245 -151 -272 -294 -5 -30 -10 -118 -10 -197 0 -109 -3 -144 -12 -144 -7 0 -233 -1 -503 -3 -480 -3 -491 -4 -546 -25 -79 -32 -133 -73 -173 -134 -66 -101 -68 -116 -64 -610 4 -481 5 -482 65 -602 29 -57 102 -139 154 -171 78 -50 107 -54 457 -60 182 -3 337 -2 346 1 13 5 16 21 16 76 0 60 3 72 25 93 27 28 42 30 80 13 29 -13 34 -28 37 -113 l3 -60 85 -7 c47 -5 203 -5 347 -2 l262 6 6 29 c12 54 31 59 238 59 186 0 188 0 212 -25 14 -13 25 -33 25 -43 0 -19 11 -20 163 -27 89 -3 245 -3 347 2 l185 8 -3 41 c-8 102 36 160 100 133 31 -13 35 -24 41 -111 2 -32 7 -61 11 -65 10 -10 532 -10 643 -1 66 5 95 13 144 39 99 53 178 158 222 294 21 68 22 81 22 530 l0 460 -27 57 c-35 75 -98 142 -166 175 -50 25 -69 27 -221 34 -91 4 -321 6 -511 5 -190 -1 -351 -1 -357 2 -10 3 -13 43 -13 156 0 167 -13 238 -56 312 -36 61 -115 129 -182 156 -57 23 -60 23 -562 25 -415 2 -514 0 -558 -12z m1025 -274 c64 -30 77 -62 81 -214 3 -81 0 -132 -7 -140 -8 -10 -125 -13 -563 -11 -304 1 -557 3 -562 3 -4 1 -7 63 -4 139 3 115 7 143 23 172 41 71 37 70 540 70 420 0 453 -2 492 -19z"/>
    <path d="M1082 2259 l3 -674 24 -53 c31 -69 122 -153 198 -184 l58 -23 1799 -3 c1188 -1 1818 1 1855 8 117 22 213 95 267 205 l29 60 2 670 2 670 -22 -30 c-47 -64 -135 -143 -188 -168 -98 -46 -127 -49 -486 -54 l-343 -5 0 -113 c0 -63 -4 -125 -10 -140 -18 -48 -98 -56 -122 -11 -8 13 -12 68 -13 141 l0 120 -347 3 -348 2 0 -94 c0 -103 -11 -142 -44 -153 -12 -4 -104 -6 -206 -4 -233 3 -224 -3 -228 146 l-4 105 -346 -2 -347 -3 -2 -115 c-2 -63 -5 -125 -8 -136 -10 -44 -96 -52 -122 -12 -4 7 -10 69 -13 138 l-5 125 -345 6 c-236 4 -358 10 -385 19 -105 33 -199 97 -266 183 l-40 50 3 -674z"/>
  </g>
</svg>

