<?xml version="1.0" standalone="no"?>
<!DOCTYPE svg PUBLIC "-//W3C//DTD SVG 20010904//EN"
 "http://www.w3.org/TR/2001/REC-SVG-20010904/DTD/svg10.dtd">
<svg version="1.0" xmlns="http://www.w3.org/2000/svg"
 width="512.000000pt" height="512.000000pt" viewBox="0 0 512.000000 512.000000"
 preserveAspectRatio="xMidYMid meet">

<g transform="translate(0.000000,512.000000) scale(0.100000,-0.100000)"
fill="#1e3a5f" stroke="none">
<path d="M2279 5105 c-69 -22 -140 -74 -176 -128 -53 -79 -63 -130 -63 -318
l0 -167 -72 -22 c-40 -12 -121 -42 -181 -67 l-107 -46 -140 137 c-171 167
-213 191 -335 191 -133 0 -161 -19 -410 -273 -116 -117 -220 -232 -232 -255
-50 -92 -51 -213 -1 -310 11 -22 75 -96 143 -166 l123 -126 -34 -60 c-18 -33
-55 -111 -80 -172 l-47 -113 -156 0 c-183 0 -265 -10 -326 -40 -62 -30 -123
-92 -153 -158 l-27 -57 0 -330 0 -330 26 -55 c37 -80 81 -125 157 -162 l67
-33 187 -3 187 -4 20 -68 c12 -38 40 -113 62 -167 22 -54 43 -106 46 -116 4
-14 -27 -51 -130 -151 -167 -161 -192 -205 -192 -331 0 -132 19 -161 269 -411
122 -123 228 -220 251 -232 56 -28 149 -45 204 -37 90 12 157 55 286 184 l119
121 71 -39 c38 -21 116 -57 171 -80 l102 -43 4 -202 c4 -176 7 -208 26 -257
28 -71 97 -143 170 -177 l57 -27 330 0 330 0 67 33 c76 37 120 82 157 162 25
52 26 65 29 242 l4 186 85 27 c46 14 126 44 176 66 50 21 93 39 96 39 3 0 68
-61 143 -135 167 -166 210 -190 333 -190 134 0 161 18 411 268 251 249 268
277 269 412 0 121 -31 177 -184 329 l-119 119 43 81 c23 45 60 123 80 174 l38
92 156 0 c183 0 265 10 326 40 62 30 123 92 153 158 l27 57 0 330 0 330 -33
67 c-37 76 -82 120 -162 157 -52 24 -65 26 -242 29 l-188 4 -16 56 c-9 32 -39
112 -66 180 l-50 123 136 140 c167 170 191 212 191 334 0 133 -19 162 -267
409 -180 178 -220 213 -277 240 -57 27 -77 31 -141 30 -114 -1 -164 -30 -319
-179 l-127 -123 -59 34 c-33 18 -111 55 -172 80 l-113 47 0 161 c0 181 -10
259 -40 322 -30 61 -93 122 -158 152 l-57 27 -315 2 c-253 2 -324 -1 -361 -12z
m674 -188 c16 -10 37 -32 47 -50 18 -29 20 -52 20 -255 0 -234 7 -279 47 -300
10 -6 63 -27 118 -47 109 -41 208 -88 296 -141 38 -23 69 -34 94 -34 36 0 48
10 194 154 241 237 231 238 509 -38 229 -226 252 -262 221 -342 -5 -16 -84
-103 -174 -194 -98 -99 -166 -176 -170 -192 -5 -21 5 -54 45 -140 29 -62 73
-176 98 -253 24 -77 53 -149 64 -160 17 -19 35 -20 248 -25 251 -5 254 -6 304
-74 20 -26 21 -40 21 -330 0 -335 0 -335 -68 -376 -29 -18 -52 -20 -255 -20
-234 0 -279 -7 -300 -47 -6 -10 -27 -63 -47 -118 -41 -109 -88 -208 -141 -296
-23 -38 -34 -69 -34 -94 0 -36 10 -48 159 -199 235 -239 236 -227 -58 -519
-286 -284 -267 -283 -516 -37 -97 96 -181 171 -196 175 -18 5 -57 -8 -145 -48
-110 -50 -250 -101 -350 -126 -77 -20 -78 -24 -84 -281 -5 -251 -6 -254 -74
-304 -26 -20 -40 -21 -330 -21 -335 0 -335 0 -376 68 -18 29 -20 52 -20 255 0
234 -7 279 -47 300 -10 6 -63 27 -118 47 -109 41 -208 88 -296 141 -38 23 -69
34 -94 34 -36 0 -48 -10 -199 -159 -236 -232 -227 -233 -509 47 -224 223 -247
258 -216 339 6 15 84 102 174 193 96 97 166 176 170 191 5 20 -7 57 -48 145
-50 110 -101 252 -126 350 -20 77 -24 78 -281 84 -251 5 -254 6 -304 74 -20
26 -21 40 -21 330 0 335 0 335 68 376 29 18 52 20 257 20 268 0 283 4 314 85
62 160 112 272 156 348 78 136 80 129 -104 316 -237 240 -238 231 38 509 226
229 262 252 342 221 16 -5 103 -84 194 -174 99 -98 176 -166 192 -170 21 -5
55 6 146 48 65 30 179 74 253 97 190 60 179 42 179 300 0 216 5 247 43 289 45
49 61 51 372 48 261 -2 294 -4 318 -20z"/>
<path d="M2358 3694 c-352 -70 -652 -276 -814 -561 -136 -238 -173 -493 -113
-786 20 -102 67 -243 94 -284 38 -57 125 -49 152 15 14 33 13 40 -16 121 -107
305 -102 560 16 796 113 224 315 396 567 481 259 88 573 67 776 -54 l45 -26
-35 -6 c-70 -12 -100 -42 -100 -100 0 -45 39 -80 87 -80 60 0 293 47 320 65
41 27 44 54 28 203 -19 164 -28 190 -72 208 -67 28 -123 -14 -123 -93 0 -25
-3 -43 -7 -41 -5 2 -42 21 -83 42 -93 48 -189 81 -293 101 -97 18 -334 18
-429 -1z"/>
<path d="M3456 3075 c-35 -32 -34 -69 4 -155 154 -351 66 -765 -223 -1048
-149 -146 -294 -225 -491 -268 -107 -23 -309 -15 -416 16 -83 24 -179 64 -254
106 l-49 27 46 14 c56 16 77 44 77 99 0 35 -5 47 -31 68 -39 33 -58 33 -221
-4 -213 -49 -218 -57 -184 -270 13 -83 31 -161 39 -174 20 -30 70 -50 103 -42
48 12 74 49 74 105 l0 51 93 -50 c183 -98 355 -141 552 -141 195 1 347 38 512
127 345 187 576 523 624 912 14 112 3 265 -26 377 -26 98 -83 228 -110 253
-35 30 -84 29 -119 -3z"/>
</g>
</svg>
