<?xml version="1.0" standalone="no"?>
<!DOCTYPE svg PUBLIC "-//W3C//DTD SVG 20010904//EN"
 "http://www.w3.org/TR/2001/REC-SVG-20010904/DTD/svg10.dtd">
<svg version="1.0" xmlns="http://www.w3.org/2000/svg"
 width="500.000000pt" height="500.000000pt" viewBox="0 0 500.000000 500.000000"
 preserveAspectRatio="xMidYMid meet">

<g transform="translate(0.000000,500.000000) scale(0.100000,-0.100000)"
fill="#1e3a5f" stroke="none">
<path d="M1804 4162 c-17 -11 -40 -32 -52 -47 -21 -27 -22 -36 -22 -289 0
-241 2 -263 20 -293 40 -67 142 -85 200 -37 58 49 60 60 60 326 0 266 -4 289
-61 331 -39 28 -107 33 -145 9z"/>
<path d="M3043 4164 c-18 -9 -42 -31 -53 -49 -19 -30 -20 -50 -20 -291 0 -239
2 -261 20 -291 55 -91 193 -81 242 17 16 30 18 66 18 275 0 263 -4 286 -61
328 -37 27 -106 32 -146 11z"/>
<path d="M1243 3925 c-102 -31 -176 -96 -222 -195 l-26 -55 0 -1210 0 -1210
27 -57 c34 -73 98 -137 174 -174 l59 -29 1230 0 1230 0 62 29 c76 35 144 104
181 184 l27 57 0 1200 0 1200 -29 62 c-34 74 -112 153 -183 185 -43 20 -68 23
-235 26 l-188 4 0 -166 c0 -193 -10 -251 -54 -309 -107 -140 -322 -122 -400
35 -25 51 -26 57 -26 245 l0 193 -379 0 -379 0 -4 -197 c-3 -179 -5 -202 -25
-238 -79 -148 -262 -178 -380 -63 -64 63 -73 100 -73 315 l0 183 -172 -1
c-113 0 -188 -5 -215 -14z m2605 -1762 l-3 -868 -22 -42 c-31 -57 -87 -100
-147 -113 -36 -8 -405 -10 -1222 -8 l-1171 3 -49 30 c-37 23 -56 44 -76 84
l-28 55 0 863 0 863 1360 0 1361 0 -3 -867z"/>
<path d="M1567 2654 c-4 -4 -7 -101 -7 -216 l0 -208 215 0 215 0 -2 213 -3
212 -206 3 c-113 1 -208 -1 -212 -4z"/>
<path d="M2277 2653 c-4 -3 -7 -100 -7 -215 l0 -208 215 0 215 0 0 215 0 215
-208 0 c-115 0 -212 -3 -215 -7z"/>
<path d="M2990 2445 l0 -215 215 0 215 0 -2 213 -3 212 -212 3 -213 2 0 -215z"/>
<path d="M1562 1728 l3 -213 210 0 210 0 3 213 2 212 -215 0 -215 0 2 -212z"/>
<path d="M2272 1728 l3 -213 210 0 210 0 3 213 2 212 -215 0 -215 0 2 -212z"/>
<path d="M2992 1728 l3 -213 190 -3 c105 -1 200 0 213 3 l22 5 -2 208 -3 207
-213 3 -212 2 2 -212z"/>
</g>
</svg>
