<?xml version="1.0" standalone="no"?>
<!DOCTYPE svg PUBLIC "-//W3C//DTD SVG 20010904//EN"
 "http://www.w3.org/TR/2001/REC-SVG-20010904/DTD/svg10.dtd">
<svg version="1.0" xmlns="http://www.w3.org/2000/svg"
 width="900.000000pt" height="866.000000pt" viewBox="0 0 900.000000 866.000000"
 preserveAspectRatio="xMidYMid meet">

<g transform="translate(0.000000,866.000000) scale(0.100000,-0.100000)"
fill="#000000" stroke="none">
<path d="M3124 8625 c-269 -25 -430 -55 -658 -120 -602 -172 -1196 -544 -1599
-1004 -267 -304 -453 -597 -597 -941 -391 -932 -353 -1969 105 -2868 171 -336
379 -618 656 -887 350 -340 745 -588 1209 -759 763 -281 1636 -273 2385 24
184 73 332 143 475 225 72 41 134 75 138 75 4 0 21 -21 37 -46 56 -84 928
-872 1870 -1689 613 -532 644 -557 750 -592 70 -24 96 -27 210 -28 117 0 139
3 219 29 111 37 204 104 338 245 173 182 259 308 304 448 24 75 28 105 29 198
0 129 -25 221 -85 314 -52 80 -668 639 -1895 1721 -219 193 -500 434 -579 498
-45 36 -82 66 -84 67 -2 2 23 56 56 121 212 423 328 816 372 1254 15 148 15
522 0 670 -114 1144 -813 2165 -1839 2684 -470 238 -948 356 -1506 370 -104 3
-225 0 -311 -9z m610 -1330 c467 -86 854 -293 1167 -623 539 -567 717 -1355
472 -2092 -234 -707 -845 -1246 -1572 -1387 -174 -34 -492 -43 -666 -19 -647
89 -1195 449 -1526 1004 -127 213 -214 451 -266 727 -21 110 -29 439 -14 562
54 441 233 837 526 1167 315 353 788 603 1260 665 44 6 94 13 110 15 72 10
424 -3 509 -19z"/>
</g>
</svg>
