<?xml version="1.0" standalone="no"?>
<!DOCTYPE svg PUBLIC "-//W3C//DTD SVG 20010904//EN"
 "http://www.w3.org/TR/2001/REC-SVG-20010904/DTD/svg10.dtd">
<svg version="1.0" xmlns="http://www.w3.org/2000/svg"
 width="512.000000pt" height="512.000000pt" viewBox="0 0 512.000000 512.000000"
 preserveAspectRatio="xMidYMid meet">

<g transform="translate(0.000000,512.000000) scale(0.100000,-0.100000)"
fill="#1e3a5f" stroke="none">
<path d="M1750 4834 c-432 -156 -796 -293 -810 -303 -46 -33 -52 -100 -12
-139 9 -9 148 -64 307 -121 160 -57 293 -107 298 -111 4 -3 1 -28 -7 -56 -30
-105 -40 -202 -40 -374 3 -520 157 -936 453 -1230 163 -161 321 -244 515 -271
283 -40 598 122 821 419 76 103 182 309 225 441 96 293 125 697 70 961 -10 52
-17 96 -15 99 4 4 406 151 413 151 1 0 1 -78 0 -172 -3 -164 -4 -173 -23 -176
-11 -2 -23 -7 -28 -11 -9 -9 -37 -226 -37 -287 0 -29 5 -44 16 -48 20 -8 258
-8 278 0 11 4 16 19 16 48 0 60 -29 279 -37 287 -5 4 -17 9 -28 11 -19 3 -20
12 -23 199 l-2 196 45 17 c71 28 96 96 55 149 -24 30 48 3 -879 338 -409 148
-754 269 -765 268 -12 0 -374 -128 -806 -285z m508 -986 c67 -25 105 -57 131
-111 30 -62 26 -95 -20 -186 -81 -158 -22 -160 308 -15 239 105 344 142 439
154 179 23 248 -66 224 -284 -40 -345 -280 -732 -549 -884 -419 -235 -889 138
-1031 820 -36 174 -26 300 32 381 95 133 297 187 466 125z"/>
<path d="M1935 2091 l-140 -119 -335 -153 c-322 -148 -337 -156 -395 -214 -59
-58 -63 -66 -137 -255 -193 -494 -310 -899 -325 -1125 -6 -104 7 -165 42 -201
l24 -24 1891 0 1891 0 24 24 c35 36 48 97 42 201 -15 228 -135 641 -328 1132
-110 278 -89 259 -529 462 l-335 153 -143 121 -144 120 -226 -226 -226 -226
98 -655 c59 -396 94 -660 89 -669 -32 -59 -201 -276 -213 -276 -12 0 -181 217
-213 276 -5 9 30 273 89 669 l98 655 -224 224 c-124 124 -227 225 -230 225 -3
-1 -68 -54 -145 -119z"/>
</g>
</svg>
