<?xml version="1.0" standalone="no"?>
<!DOCTYPE svg PUBLIC "-//W3C//DTD SVG 20010904//EN"
 "http://www.w3.org/TR/2001/REC-SVG-20010904/DTD/svg10.dtd">
<svg version="1.0" xmlns="http://www.w3.org/2000/svg"
 width="500.000000pt" height="500.000000pt" viewBox="0 0 500.000000 500.000000"
 preserveAspectRatio="xMidYMid meet">

<g transform="translate(0.000000,500.000000) scale(0.100000,-0.100000)"
fill="#1e3a5f" stroke="none">
<path d="M2340 4735 c-275 -45 -497 -184 -625 -390 -90 -143 -127 -290 -127
-495 l0 -134 -69 -74 c-114 -122 -169 -260 -169 -423 0 -139 38 -298 110 -455
16 -37 30 -72 30 -78 0 -6 -27 -38 -61 -71 -81 -81 -161 -188 -214 -288 -68
-130 -68 -136 4 -83 112 82 410 177 661 210 126 17 132 19 152 54 18 29 48
162 49 214 0 18 4 41 8 51 6 16 9 16 30 -7 22 -23 23 -31 17 -90 -16 -160 -72
-261 -149 -270 -227 -27 -387 -61 -550 -119 -123 -44 -169 -71 -234 -138 -211
-215 -302 -511 -354 -1155 -25 -311 -23 -468 7 -535 46 -99 120 -156 249 -189
76 -20 111 -20 1384 -20 860 0 1328 4 1371 11 173 27 284 131 309 289 19 115
-34 732 -83 980 -59 294 -178 538 -317 650 -109 87 -383 179 -630 210 -52 6
-108 14 -125 16 -75 11 -114 76 -141 231 l-15 94 22 25 c32 33 40 30 40 -15 0
-55 26 -184 44 -219 24 -46 39 -52 157 -68 132 -17 275 -50 414 -94 116 -38
193 -74 258 -124 26 -20 47 -31 47 -26 0 6 -18 47 -40 93 -47 97 -131 212
-225 308 l-69 70 23 52 c86 198 121 333 121 476 0 180 -51 309 -173 438 l-68
72 7 83 c12 156 -21 331 -91 473 -83 168 -191 274 -370 365 -181 92 -417 128
-615 95z m-108 -842 c256 -279 511 -444 791 -511 77 -18 75 -14 52 -132 -56
-290 -221 -505 -438 -572 -55 -16 -86 -19 -160 -16 -114 6 -181 31 -271 99
-265 200 -368 632 -240 1001 24 69 33 82 64 98 19 10 57 34 85 54 27 20 53 36
57 36 4 0 31 -26 60 -57z m32 -1233 c163 -79 320 -79 477 1 32 16 60 29 63 29
2 0 7 -24 11 -52 22 -165 93 -273 186 -285 38 -5 40 -8 34 -32 -44 -178 -190
-366 -341 -438 -77 -37 -81 -38 -195 -38 -113 0 -116 1 -192 38 -94 46 -172
116 -234 210 -43 64 -112 214 -113 243 0 6 18 14 40 17 51 7 94 38 126 93 28
48 64 169 64 216 0 15 3 28 6 28 4 0 34 -13 68 -30z m1201 -780 c38 -42 22
-56 -287 -250 -161 -101 -414 -260 -562 -353 -148 -93 -277 -172 -286 -174
-23 -6 -50 23 -50 52 0 29 18 43 220 170 85 54 241 151 345 217 105 66 275
173 379 239 105 65 197 119 206 119 9 0 25 -9 35 -20z m-1885 -500 c11 -113
24 -249 29 -304 6 -54 12 -100 14 -102 2 -3 88 29 191 69 l186 74 61 79 c34
43 78 96 98 117 72 77 174 105 212 58 29 -35 24 -49 -28 -79 -125 -71 -155
-142 -89 -208 61 -61 74 -57 371 131 142 90 260 163 262 161 2 -1 -16 -45 -38
-97 -23 -52 -65 -155 -94 -230 -65 -167 -97 -231 -141 -285 -68 -84 -184 -126
-379 -139 l-110 -6 -195 -91 c-107 -50 -227 -105 -266 -123 l-71 -33 -40 18
c-89 40 -133 163 -133 374 l0 124 45 18 45 17 0 66 c1 162 20 644 27 654 11
18 20 -37 43 -263z m1900 -220 c5 -151 10 -350 10 -442 l0 -166 -66 -52 c-36
-28 -68 -50 -70 -47 -7 6 75 842 93 960 13 86 23 7 33 -253z"/>
</g>
</svg>
