<?xml version="1.0" standalone="no"?>
<!DOCTYPE svg PUBLIC "-//W3C//DTD SVG 20010904//EN"
 "http://www.w3.org/TR/2001/REC-SVG-20010904/DTD/svg10.dtd">
<svg version="1.0" xmlns="http://www.w3.org/2000/svg"
 width="920.000000pt" height="920.000000pt" viewBox="0 0 920.000000 920.000000"
 preserveAspectRatio="xMidYMid meet">

<g transform="translate(0.000000,920.000000) scale(0.100000,-0.100000)"
fill="#000000" stroke="none">
<path d="M3625 7523 c-175 -12 -324 -52 -480 -128 -465 -225 -748 -718 -704
-1231 26 -306 147 -565 368 -785 113 -113 206 -181 342 -246 166 -80 298 -112
494 -120 637 -26 1181 413 1290 1041 31 180 15 409 -40 591 -95 313 -331 591
-629 742 -197 99 -436 150 -641 136z m316 -307 c328 -83 599 -345 693 -668 54
-186 57 -344 10 -528 -84 -330 -346 -602 -670 -694 -283 -81 -571 -39 -815
119 -368 238 -536 708 -398 1118 55 164 122 274 242 395 150 152 358 256 566
282 106 14 265 4 372 -24z"/>
<path d="M6243 5580 c-182 -20 -360 -105 -504 -241 -91 -86 -175 -225 -219
-364 -32 -99 -39 -311 -15 -421 56 -256 225 -471 461 -585 333 -161 727 -91
985 177 146 152 224 333 235 549 9 165 -33 330 -123 484 -46 78 -177 213 -257
266 -161 104 -374 155 -563 135z m212 -285 c211 -44 385 -211 439 -421 73
-282 -89 -583 -369 -685 -88 -33 -285 -33 -369 -1 -177 66 -311 202 -367 374
-34 104 -33 253 3 354 79 225 303 390 533 393 33 0 92 -6 130 -14z"/>
<path d="M2550 4691 c-249 -82 -430 -175 -612 -311 -424 -319 -683 -804 -779
-1457 -52 -358 -36 -907 36 -1230 l5 -23 1584 0 1583 0 6 193 c20 643 239
1250 587 1622 151 161 341 305 503 380 89 41 88 38 35 135 -95 173 -250 334
-443 460 -153 100 -439 224 -575 250 -90 17 -191 -17 -412 -140 -204 -114
-347 -157 -498 -147 -121 7 -194 33 -460 162 -333 162 -370 169 -560 106z
m226 -255 c22 -8 131 -59 244 -114 238 -117 347 -156 484 -173 113 -14 243 -2
368 32 74 21 286 118 394 181 32 19 84 44 114 57 l55 22 90 -31 c136 -48 303
-131 402 -199 99 -68 223 -176 222 -194 0 -7 -37 -38 -83 -70 -391 -272 -690
-724 -856 -1295 -45 -156 -110 -545 -110 -662 l0 -40 -1334 0 -1333 0 -6 38
c-17 102 -29 394 -23 555 27 763 275 1313 742 1646 101 72 303 175 444 226
107 38 131 41 186 21z"/>
<path d="M5659 3737 c-264 -103 -492 -282 -661 -519 -235 -330 -382 -825 -391
-1313 l-2 -150 1725 -1 c949 -1 1731 1 1738 4 26 9 9 345 -29 582 -72 452
-235 808 -483 1055 -182 182 -390 297 -561 312 -83 7 -147 -5 -310 -58 -146
-46 -189 -56 -286 -65 -111 -9 -173 7 -361 98 -210 101 -247 106 -379 55z
m231 -292 c246 -124 369 -154 551 -134 111 12 160 23 309 71 78 25 151 42 195
45 66 4 75 2 150 -35 398 -195 631 -632 699 -1309 l5 -53 -1456 0 -1456 0 7
73 c23 246 105 546 202 740 125 248 278 421 483 547 50 31 197 100 214 100 4
0 48 -20 97 -45z"/>
</g>
</svg>
