<?xml version="1.0" standalone="no"?>
<!DOCTYPE svg PUBLIC "-//W3C//DTD SVG 20010904//EN"
 "http://www.w3.org/TR/2001/REC-SVG-20010904/DTD/svg10.dtd">
<svg version="1.0" xmlns="http://www.w3.org/2000/svg"
 width="512.000000pt" height="512.000000pt" viewBox="0 0 512.000000 512.000000"
 preserveAspectRatio="xMidYMid meet">

<g transform="translate(0.000000,512.000000) scale(0.100000,-0.100000)"
fill="#ffffff" stroke="none">
<path d="M4569 5092 c-39 -20 -62 -41 -84 -77 l-30 -48 -3 -345 -3 -344 -102
99 c-286 277 -606 473 -969 596 -818 277 -1707 124 -2398 -411 -115 -90 -341
-316 -430 -432 -280 -365 -444 -746 -516 -1195 -12 -73 -18 -169 -18 -286 -1
-175 -1 -175 26 -217 74 -111 232 -132 330 -44 54 49 77 102 78 177 0 105 20
286 45 411 157 783 764 1421 1539 1619 632 161 1305 23 1816 -374 90 -69 270
-238 270 -252 0 -5 -145 -9 -323 -9 l-323 0 -52 -26 c-86 -43 -133 -137 -117
-234 10 -58 62 -130 114 -157 l44 -23 631 0 c589 0 634 2 671 19 50 22 101 79
115 128 8 26 10 234 8 675 l-3 636 -30 43 c-19 27 -50 54 -84 71 -71 37 -131
37 -202 0z"/>
<path d="M4828 2768 c-49 -13 -116 -72 -139 -122 -11 -25 -19 -65 -19 -101 -1
-297 -81 -636 -214 -910 -300 -615 -862 -1037 -1546 -1160 -124 -22 -445 -31
-576 -16 -391 45 -748 187 -1054 419 -79 60 -310 279 -310 293 0 5 169 9 375
9 317 0 381 2 413 16 184 76 172 356 -17 413 -27 8 -223 11 -658 11 l-619 0
-52 -26 c-56 -28 -107 -93 -117 -148 -3 -17 -5 -308 -3 -646 3 -675 0 -639 65
-704 105 -107 283 -78 356 57 21 40 22 55 25 325 l3 283 74 -70 c174 -165 392
-315 620 -426 344 -168 665 -248 1045 -262 880 -31 1716 402 2210 1144 256
385 402 835 417 1288 5 162 5 172 -17 214 -30 60 -75 99 -134 116 -56 17 -75
17 -128 3z"/>
</g>
</svg>
